# xmcd CD database file
#
# Track frame offsets:
#	150
#	24021
#	42515
#	64319
#	82787
#	103300
#	128314
#	147109
#	165797
#	186996
#
# Disc length: 2695 seconds
#
# Revision: 0
# Processed by: cddbd v1.5.1PL0 Copyright (c) Steve Scherf et al.
# Submitted via: CDex 1.50
#
DISCID=740a850a
DTITLE=大貫妙子 - One Fine Day
DYEAR=2005
DGENRE=JPop
TTITLE0=船出
TTITLE1=The Blank Paper
TTITLE2=One Fine Day With You
TTITLE3=Hiver
TTITLE4=Hello, Goodbye
TTITLE5=Time To Go
TTITLE6=Deja vu
TTITLE7=春の手紙 (2005 version)
TTITLE8=Voyage
TTITLE9=A Kiss From The Sun
EXTD=YEAR: 2005
EXTT0=
EXTT1=
EXTT2=
EXTT3=
EXTT4=
EXTT5=
EXTT6=
EXTT7=
EXTT8=
EXTT9=
PLAYORDER=
